<svg xmlns="http://www.w3.org/2000/svg" version="1.1" xmlns:xlink="http://www.w3.org/1999/xlink" xmlns:svgjs="http://svgjs.dev/svgjs" width="1000" height="1165" viewBox="0 0 1000 1165"><g transform="matrix(1,0,0,1,0.13131616191526518,0.47165991902829774)"><svg viewBox="0 0 212 247" data-background-color="#ffffff" preserveAspectRatio="xMidYMid meet" height="1165" width="1000" xmlns="http://www.w3.org/2000/svg" xmlns:xlink="http://www.w3.org/1999/xlink"><g id="tight-bounds" transform="matrix(1,0,0,1,-0.027839026326034855,-0.09999999999999432)"><svg viewBox="0 0 212.05567805265207 247.2" height="247.2" width="212.05567805265207"><g><svg viewBox="0 0 395.52 461.0701533571937" height="247.2" width="212.05567805265207"><g transform="matrix(1,0,0,1,0,298.79993800655876)"><svg viewBox="0 0 395.52 162.27021535063497" height="162.27021535063497" width="395.52"><g id="textblocktransform"><svg viewBox="0 0 395.52 162.27021535063497" height="162.27021535063497" width="395.52" id="textblock"><g><svg viewBox="0 0 395.52 162.27021535063497" height="162.27021535063497" width="395.52"><g transform="matrix(1,0,0,1,0,0)"><svg width="395.52" viewBox="3 -36.150001525878906 90.55000305175781 37.150001525878906" height="162.27021535063497" data-palette-color="#5e1914"><path d="M51.2-3.15L51.2-3.15Q51.1-2 50.23-1.1 49.35-0.2 47.85-0.1L47.85-0.1Q43.75 0.15 41.1 0.15 38.45 0.15 34.85-0.1L34.85-0.1Q32.1-0.35 31.95-2.5L31.95-2.5Q31.9-3.35 31.85-4.73 31.8-6.1 31.73-7.15 31.65-8.2 31.18-8.8 30.7-9.4 29.5-9.4L29.5-9.4 25.75-9.4Q24.55-9.4 24.08-8.8 23.6-8.2 23.53-7.15 23.45-6.1 23.4-4.73 23.35-3.35 23.3-2.5L23.3-2.5Q23.15-0.35 20.4-0.1L20.4-0.1Q16.8 0.15 13.83 0.15 10.85 0.15 6.75-0.1L6.75-0.1Q5.25-0.2 4.38-1.1 3.5-2 3.4-3.15L3.4-3.15Q3-7.55 3-17.3 3-27.05 3.2-29.98 3.4-32.9 4.1-33.98 4.8-35.05 6.9-35.05L6.9-35.05 19.1-35.05Q20.85-35.05 22.08-33.85 23.3-32.65 23.3-30.75L23.3-30.75 23.3-20.25Q23.3-18.45 24.85-18.45L24.85-18.45 30.4-18.45Q31.95-18.45 31.95-20.25L31.95-20.25 31.95-30.75Q31.95-32.65 33.18-33.85 34.4-35.05 36.15-35.05L36.15-35.05 47.7-35.05Q49.8-35.05 50.5-33.98 51.2-32.9 51.4-29.98 51.6-27.05 51.6-17.3 51.6-7.55 51.2-3.15ZM73.1 1Q68.8 1 65.07 0.05 61.35-0.9 59.82-1.85 58.3-2.8 57.8-3.2L57.8-3.2Q56.5-4.25 56.5-6.1L56.5-6.1Q56.5-7.55 56.85-8.85L56.85-8.85Q57.5-11.3 59.2-11.3L59.2-11.3Q59.75-11.25 62.72-10.15 65.7-9.05 67.4-9.05L67.4-9.05Q69.95-9.05 69.95-11.05L69.95-11.05Q69.95-12.25 68.7-13.28 67.45-14.3 65.67-15.25 63.9-16.2 62.1-17.43 60.3-18.65 59.05-20.83 57.8-23 57.8-25.9L57.8-25.9Q57.8-30.7 62.5-33.43 67.2-36.15 74.65-36.15 82.1-36.15 86.47-34.63 90.85-33.1 90.85-30.4L90.85-30.4Q90.85-28.45 89.95-26.98 89.05-25.5 88.05-25.5L88.05-25.5Q87.7-25.5 85.72-26.28 83.75-27.05 82.15-27.05L82.15-27.05Q79-27.05 79-24.6L79-24.6Q79-23.4 80.5-22.4 82-21.4 84.12-20.48 86.25-19.55 88.4-18.4 90.55-17.25 92.05-15.25 93.55-13.25 93.55-10.4 93.55-7.55 91.72-5.2 89.9-2.85 86.9-1.55L86.9-1.55Q80.95 1 73.1 1L73.1 1Z" opacity="1" transform="matrix(1,0,0,1,0,0)" fill="#5e1914" class="undefined-text-0" data-fill-palette-color="primary" id="text-0"></path></svg></g></svg></g></svg></g></svg></g><g transform="matrix(1,0,0,1,86.66813435583711,0)"><svg viewBox="0 0 222.18373128832576 222.18373128832576" height="222.18373128832576" width="222.18373128832576"><g><svg></svg></g><g id="icon-0"><svg viewBox="0 0 222.18373128832576 222.18373128832576" height="222.18373128832576" width="222.18373128832576"><g><path d="M0 111.092c0-61.354 49.738-111.092 111.092-111.092 61.354 0 111.092 49.738 111.092 111.092 0 61.354-49.738 111.092-111.092 111.092-61.354 0-111.092-49.738-111.092-111.092zM111.092 207.55c53.272 0 96.458-43.186 96.458-96.458 0-53.272-43.186-96.458-96.458-96.458-53.272 0-96.458 43.186-96.458 96.458 0 53.272 43.186 96.458 96.458 96.458z" data-fill-palette-color="accent" fill="#5e1914" stroke="transparent"></path><ellipse rx="109.98094698772125" ry="109.98094698772125" cx="111.09186564416288" cy="111.09186564416288" fill="#5e1914" stroke="transparent" stroke-width="0" fill-opacity="1" data-fill-palette-color="accent"></ellipse></g><g transform="matrix(1,0,0,1,79.9129813629891,51.527593032020285)"><svg viewBox="0 0 62.35776856234755 119.12854522428519" height="119.12854522428519" width="62.35776856234755"><g><svg xmlns="http://www.w3.org/2000/svg" xmlns:xlink="http://www.w3.org/1999/xlink" version="1.1" x="0" y="0" viewBox="19.682355880737305 3.5 35.572967529296875 67.95874786376953" enable-background="new 0 0 75 75" xml:space="preserve" height="119.12854522428519" width="62.35776856234755" class="icon-s-0" data-fill-palette-color="quaternary" id="s-0"><path d="M21.2 59.5c-1.1-2.6-4.2-12.2 3.8-24.7C36 18 31.7 3.5 31.7 3.5S46 8.8 41.7 37.5c-1 6.5-0.9 9 2 9.4 5 0.7 3.1-19.7 3.1-19.7s3.9 2 6.8 12.1c1.5 5.3 1.8 9.5 1.6 12.5-1 18.1-16.5 19.6-16.5 19.6S26.9 73 21.2 59.5z" fill="#ffffff" data-fill-palette-color="quaternary"></path></svg></g></svg></g></svg></g></svg></g><g></g></svg></g><defs></defs></svg><rect width="212.05567805265207" height="247.2" fill="none" stroke="none" visibility="hidden"></rect></g></svg></g></svg>